


-: Cover :-

    	http://desibbrg.org/images/16751527241829338964.jpg



-:



    	http://desibbrg.org/images/13614772878763305656.jpg
    	http://desibbrg.org/images/07490900505555474517.jpg
    	http://desibbrg.org/images/00905687449321013602.jpg
    	http://desibbrg.org/images/69258732776800784011.jpg
    	http://desibbrg.org/images/53172331841138451585.jpg
    	http://desibbrg.org/images/72130603598414299547.jpg
    	http://desibbrg.org/images/82398967538024986635.jpg
    

-: INFo :-



General

Format                           : AVI
Format/Info                      : Audio Video Interleave
Format profile                   : OpenDML
File size                        : 1.23 GiB
Duration                         : 21mn 8s
Overall bit rate                 : 8 343 Kbps
Writing application              : Lavf52.31.0

Video
ID                               : 0
Format                           : xvid
Codec ID                         : xvid
Duration                         : 21mn 8s
Bit rate                         : 1 812 Kbps
Width                            : 704 pixels
Height                           : 394 pixels
Display aspect ratio             : 16:9
Frame rate                       : 29.970 fps
Bits/(Pixel*Frame)               : 0.218
Stream size                      : 274 MiB (22%)

Audio
ID                               : 1
Format                           : MPEG Audio
Format version                   : Version 1
Format profile                   : Layer 3
Mode                             : Joint stereo
Mode extension                   : MS Stereo
Codec ID                         : 55
Codec ID/Hint                    : MP3
Duration                         : 16mn 35s
Bit rate mode                    : Constant
Bit rate                         : 128 Kbps
Channel(s)                       : 2 channels
Sampling rate                    : 44.1 KHz
Stream size                      : 15.2 MiB (1%)
Alignment                        : Aligned on interleaves
Interleave, duration             : 33 ms (1.00 video frame)


 
http://www.imdb.com/title/tt0457802/


Directed by
Vishal Bhardwaj	 	
 
Writing credits
Ruskin Bond	 	(based on a novella by)

Minty Kunwar Tejpal	 	(screenplay) and
Abhishek Chaubey	 	(screenplay) and
Vishal Bhardwaj	 	(screenplay)

Vishal Bhardwaj	 	(dialogue)

Cast (in credits order)
	Pankaj Kapur	... 	Nandakishore 'Nandu' Khatri
	Shreya Sharma	... 	Biniya
	Deepak Dobriyal	... 	Robot Owner
	Rahul Kumar	... 	Tikku
	Paramjit Singh Kakran	... 	Rajaram
	Piu Dutt	... 	Binya's mother
	Shailendra Mohite	... 	Cobbler
	Bhupinder Sharma	... 	Vaidji
	Kamal Tiwari	... 	Mukhiya (as Kamal Tewari)
	Kumar Thakur	... 	Chander
	Dolly Ahluwalia	... 	Lillavati
	Alok Mathur	... 	Masterji
	Rajesh Sharma	... 	Policeman

Original Music by
Vishal Bhardwaj	 	
 
Cinematography by
Sachin Krishn	 	(director of photography) (as Sachin K. Krishn)
 
Film Editing by
Aarif Sheikh	 	
 
Casting by
Honey Trehan	 	(uncredited) 

Young Biniya lives a poor lifestyle in a small village in the mountainous and snowy region of Himachal Pradesh in India along with her widowed mom and wrestler brother. She entertains various tourists, and while doing so with some tourists from Japan, trades in her bear-tooth amulet with a blue umbrella. She and her umbrella become very popular with both tourists and the local villagers. A restaurant-owner, Nandkishore Khatri, takes a fancy to this umbrella and attempts several times to buy if off of her - in vain. Then one day while tending to her two cows, the umbrella goes missing. The entire village sympathizes with her. She suspects Nandkishore, and the police turn his house upside down but are unable to locate the missing umbrella. An embittered and upset Nandkishore orders a red-and-white Japanese umbrella and, in turn, becomes immensely popular with the local villagers as well as with tourists. The question remains: where did Biniya's umbrella disappear to, and will she ever ...



